{"title":"Suraj The Sun 1966 DVDRip XviD Mp3 - DADA","uid":8428189,"size":1327510011,"categoryP":"video","categoryS":"movies","magnet":"?xt=urn:btih:db37b3a3dbc30374b6539948205a696cea8ca0e1&amp;dn=+Suraj+The+Sun+1966+DVDRip+XviD+Mp3+-+DADA&amp;tr=udp%3A%2F%2Ftracker.openbittorrent.com%3A80&amp;tr=udp%3A%2F%2Fopen.demonii.com%3A1337&amp;tr=udp%3A%2F%2Ftracker.coppersurfer.tk%3A6969&amp;tr=udp%3A%2F%2Fexodus.desync.com%3A6969","seeders":0,"leechers":0,"uploader":"Bclassics","files":2,"time":1367414680,"description":"\nClick To Enlarge \n\n\n\n-: Cover :-\n\n\n    &lt;a href=&quot;\thttp://desibbrg.org/images/99347360013713807303.jpg&quot; rel=&quot;nofollow&quot; target=&quot;_NEW&quot;&gt;\thttp://desibbrg.org/images/99347360013713807303.jpg&lt;/a&gt;\n\n\n-: Screens :-\n\n\n\n\n\n\n    &lt;a href=&quot;\thttp://desibbrg.org/images/26342361582094465742.jpg&quot; rel=&quot;nofollow&quot; target=&quot;_NEW&quot;&gt;\thttp://desibbrg.org/images/26342361582094465742.jpg&lt;/a&gt;\n    &lt;a href=&quot;\thttp://desibbrg.org/images/45127942374577493011.jpg&quot; rel=&quot;nofollow&quot; target=&quot;_NEW&quot;&gt;\thttp://desibbrg.org/images/45127942374577493011.jpg&lt;/a&gt;\n    &lt;a href=&quot;\thttp://desibbrg.org/images/97885918508246727455.jpg&quot; rel=&quot;nofollow&quot; target=&quot;_NEW&quot;&gt;\thttp://desibbrg.org/images/97885918508246727455.jpg&lt;/a&gt;\n    &lt;a href=&quot;\thttp://desibbrg.org/images/78345637516877402356.jpg&quot; rel=&quot;nofollow&quot; target=&quot;_NEW&quot;&gt;\thttp://desibbrg.org/images/78345637516877402356.jpg&lt;/a&gt;\n    &lt;a href=&quot;\thttp://desibbrg.org/images/71525238224179931029.jpg&quot; rel=&quot;nofollow&quot; target=&quot;_NEW&quot;&gt;\thttp://desibbrg.org/images/71525238224179931029.jpg&lt;/a&gt;\n    &lt;a href=&quot;\thttp://desibbrg.org/images/01462712152603650810.jpg&quot; rel=&quot;nofollow&quot; target=&quot;_NEW&quot;&gt;\thttp://desibbrg.org/images/01462712152603650810.jpg&lt;/a&gt;\n    &lt;a href=&quot;\thttp://desibbrg.org/images/12666289298945075559.jpg&quot; rel=&quot;nofollow&quot; target=&quot;_NEW&quot;&gt;\thttp://desibbrg.org/images/12666289298945075559.jpg&lt;/a&gt;\n    &lt;a href=&quot;\thttp://desibbrg.org/images/87468561747641511558.jpg&quot; rel=&quot;nofollow&quot; target=&quot;_NEW&quot;&gt;\thttp://desibbrg.org/images/87468561747641511558.jpg&lt;/a&gt;\n    &lt;a href=&quot;\thttp://desibbrg.org/images/76532471799647024888.jpg&quot; rel=&quot;nofollow&quot; target=&quot;_NEW&quot;&gt;\thttp://desibbrg.org/images/76532471799647024888.jpg&lt;/a&gt;\n    &lt;a href=&quot;\thttp://desibbrg.org/images/12613528580114091046.jpg&quot; rel=&quot;nofollow&quot; target=&quot;_NEW&quot;&gt;\thttp://desibbrg.org/images/12613528580114091046.jpg&lt;/a&gt;\n    &lt;a href=&quot;\thttp://desibbrg.org/images/37474080919489186854.jpg&quot; rel=&quot;nofollow&quot; target=&quot;_NEW&quot;&gt;\thttp://desibbrg.org/images/37474080919489186854.jpg&lt;/a&gt;\n    &lt;a href=&quot;\thttp://desibbrg.org/images/69359150507064052316.jpg&quot; rel=&quot;nofollow&quot; target=&quot;_NEW&quot;&gt;\thttp://desibbrg.org/images/69359150507064052316.jpg&lt;/a&gt;\n    &lt;a href=&quot;\thttp://desibbrg.org/images/90757600657560177046.jpg&quot; rel=&quot;nofollow&quot; target=&quot;_NEW&quot;&gt;\thttp://desibbrg.org/images/90757600657560177046.jpg&lt;/a&gt;\n    &lt;a href=&quot;\thttp://desibbrg.org/images/77975686851406030108.jpg&quot; rel=&quot;nofollow&quot; target=&quot;_NEW&quot;&gt;\thttp://desibbrg.org/images/77975686851406030108.jpg&lt;/a&gt;\n   \n\n\n\n\n-: Info :-\n\n\nGeneral\n\nFormat                           : AVI\nFormat/Info                      : Audio Video Interleave\nFile size                        : 1.24 GiB\nDuration                         : 2h 35mn\nOverall bit rate                 : 1 140 Kbps\nWriting application              : MEncoder Sherpya-SVN-r32492-4.2.5\nWriting library                  : VirtualDub build 32817/release\n\nVideo\nID                               : 0\nFormat                           : MPEG-4 Visual\nFormat profile                   : Advanced Simple@L5\nFormat settings, BVOP            : Yes\nFormat settings, QPel            : No\nFormat settings, GMC             : No warppoints\nFormat settings, Matrix          : Default (H.263)\nMuxing mode                      : Packed bitstream\nCodec ID                         : XVID\nCodec ID/Hint                    : XviD\nDuration                         : 2h 35mn\nBit rate                         : 1 005 Kbps\nWidth                            : 640 pixels\nHeight                           : 480 pixels\nDisplay aspect ratio             : 4:3\nFrame rate                       : 25.000 fps\nColor space                      : YUV\nChroma subsampling               : 4:2:0\nBit depth                        : 8 bits\nScan type                        : Progressive\nBits/(Pixel*Frame)               : 0.131\nStream size                      : 1.09 GiB (88%)\nWriting library                  : XviD 58\n\nAudio\nID                               : 1\nFormat                           : MPEG Audio\nFormat version                   : Version 1\nFormat profile                   : Layer 3\nMode                             : Joint stereo\nMode extension                   : MS Stereo\nCodec ID                         : 55\nCodec ID/Hint                    : MP3\nDuration                         : 2h 35mn\nBit rate mode                    : Variable\nBit rate                         : 122 Kbps\nChannel(s)                       : 2 channels\nSampling rate                    : 44.1 KHz\nStream size                      : 135 MiB (11%)\nAlignment                        : Aligned on interleaves\nInterleave, duration             : 26 ms (0.65 video frame)\nInterleave, preload duration     : 523 ms\nRipper - Usha\n &lt;a href=&quot;\nhttp://www.imdb.com/title/tt0061046/&quot; rel=&quot;nofollow&quot; target=&quot;_NEW&quot;&gt;\nhttp://www.imdb.com/title/tt0061046/&lt;/a&gt;\n\n\nDirected by\nT. Prakash Rao\t \t\n \nWriting credits\n(in alphabetical order)\nAbrar Alvi\t \tdialogue\nJawar N. Sitaraman\t \tscreenplay (as Javar Sitaraman)\n\nCast (in credits order) complete, awaiting verification\n\tVyjayanthimala\t... \tPrincess Anuradha Singh\n\tRajendra Kumar\t... \tSuraj Singh\n\tAjit\t... \tRajkumar Pratap Singh\n\tGajanan Jagirdar\t... \tRam Singh (as Jagirdar)\n\tAgha\t... \tKotwal Bhakti Charan\n\tDavid Abraham\t... \tMaharaja Vikram Singh (as David)\n\tNiranjan Sharma\t... \tMaharaja Sangram Singh\n\tMukri\t... \tAnokhe\n\tKeshav Rana\t... \tPratap Singh's Man (as Keshav)\n\tJohnny Walker\t... \tBhola\n\tMumtaz\t... \tKalavati\n\tMalika\t... \tMadhuri\n\tBharathi\t... \tGeeta Singh (as Bharati)\n\tLalita Pawar\t... \tMaharani\nrest of cast listed alphabetically:\n\tMoolchand\t... \tMusicians Head (uncredited)\n\tNeetu Singh\t... \tYoung Geeta (uncredited)\n\n\nVikram Singh is the Maharaja of Pratap Nagar and is very impressed with his Senapati Sangram Singh for years of loyal service. He decides to make him a Maharaja and agrees to marry his daughter, Anuradha, with his son, Pratap. Years later, Vikram sends his now grown-up Anuradha to visit the coronation of Rajkumar Pratap Singh and approve of him as her husband, and she sets off without any escort with just her maid-servant, Kalavati, for company. Shortly thereafter, Vikram is informed that Kalavati has been abducted by a bandit named Suraj Singh, he accordingly rushes over to Sangram's and this is where he discovers to his shock that Kalavati is posing as Anuradha, and it is his daughter that has been abducted by Suraj. Watch what happens when Suraj is arrested and lodged in a dungeon, and preparations are set forth for the coronation of Pratap and his subsequently marriage with Anuradha.\n","torrent":{"xt":"urn:btih:db37b3a3dbc30374b6539948205a696cea8ca0e1","amp;dn":"+Suraj+The+Sun+1966+DVDRip+XviD+Mp3+-+DADA","amp;tr":["udp%3A%2F%2Ftracker.openbittorrent.com%3A80","udp%3A%2F%2Fopen.demonii.com%3A1337","udp%3A%2F%2Ftracker.coppersurfer.tk%3A6969","udp%3A%2F%2Fexodus.desync.com%3A6969"],"infoHash":"db37b3a3dbc30374b6539948205a696cea8ca0e1","infoHashBuffer":{"type":"Buffer","data":[219,55,179,163,219,195,3,116,182,83,153,72,32,90,105,108,234,140,160,225]},"announce":[],"urlList":[]}}